# xmcd
#
# Track frame offsets: 
#        150
#        15712
#        36449
#        63802
#        75189
#        107115
#        138265
#        172436
#        198905
#
# Disc length: 3159 seconds
#
# Revision: 0
# Processed by: cddbd v1.5.2PL0 Copyright (c) Steve Scherf et al.
# Submitted via: ExactAudioCopy v0.95b3
#
DISCID=720c5509
DTITLE=John Mayall  - Essentially John Mayall CD5 - Exclusive Live Rar
DTITLE=ities
DYEAR=1900
DGENRE=
TTITLE0=Hideaway
TTITLE1=Tears In My Eyes
TTITLE2=Help Me
TTITLE3=French Toast
TTITLE4=Broken Wings
TTITLE5=Racehorse Man
TTITLE6=Tears Came Rollin' Down
TTITLE7=Undercover Agent For The Blues
TTITLE8=Mail Order Mystics
EXTD=
EXTT0=
EXTT1=
EXTT2=
EXTT3=
EXTT4=
EXTT5=
EXTT6=
EXTT7=
EXTT8=
PLAYORDER=
